# xmcd
#
# Track frame offsets:
#	150
#	12824
#	35825
#	73307
#	103442
#	131918
#	154088
#	170985
#	189518
#	208630
#	232133
#	252894
#	270536
#	291724
#	318409
#
# Disc length: 4540 seconds
# Revision: 0
# Processed by: cddbd v1.5.2PL0 Copyright (c) Steve Scherf et al.
# Submitted via: dBpowerAMP V12.0
#
DISCID=f611ba0f
DTITLE=Livin' Blues - More Livin' Blues [CD 2)
DYEAR=2016
DGENRE=Blues Rock
TTITLE0=Lazy Liza (Demo)
TTITLE1=Rock and Roll Hoochie Coo (Live Recording 1975)
TTITLE2=I'm Coming Home (Live Recording 1975)
TTITLE3=See My Baby Drive (Live Recording 1975)
TTITLE4=Back Stage (Live Recording 1975)
TTITLE5=Shannon (Demo)
TTITLE6=Punk Funk (Demo)
TTITLE7=Roses (Demo)
TTITLE8=Doomsday Night (Demo)
TTITLE9=Rock and Roll Hoochie Coo (Demo)
TTITLE10=Will You Still Love Me (Demo)
TTITLE11=Statement (Demo Ted Oberg)
TTITLE12=Polish Blues (Demo Ted Oberg)
TTITLE13=Livin' Blues Xperience - The Best Thing I Can Do (from "This Is the Time")
TTITLE14=Ted Oberg - Kaddish for Ellen (Demo)
EXTD=
EXTT0=
EXTT1=
EXTT2=
EXTT3=
EXTT4=
EXTT5=
EXTT6=
EXTT7=
EXTT8=
EXTT9=
EXTT10=
EXTT11=
EXTT12=
EXTT13=
EXTT14=
PLAYORDER=
